<svg width="8" height="6" viewBox="0 0 8 6" fill="none" xmlns="http://www.w3.org/2000/svg">
<path d="M7.70725 2.11769C7.66383 2.66936 7.01203 3.32117 5.70841 4.62479L5.7084 4.62479C5.10672 5.22647 4.80588 5.52732 4.46339 5.6386C4.16212 5.73649 3.8376 5.73649 3.53634 5.6386C3.19384 5.52732 2.893 5.22647 2.29132 4.62479C0.987701 3.32117 0.335891 2.66936 0.292474 2.11769C0.254801 1.63901 0.448563 1.17123 0.813678 0.859391C1.23447 0.5 2.15627 0.5 3.99986 0.5C5.84346 0.5 6.76526 0.5 7.18605 0.859391C7.55116 1.17123 7.74493 1.63901 7.70725 2.11769Z" fill="white" fill-opacity="0.24"/>
</svg>
