<svg width="20" height="20" viewBox="0 0 20 20" fill="none" xmlns="http://www.w3.org/2000/svg">
<g opacity="0.24">
<path fill-rule="evenodd" clip-rule="evenodd" d="M9.99984 0.916748C4.98325 0.916748 0.916504 4.9835 0.916504 10.0001C0.916504 15.0167 4.98325 19.0834 9.99984 19.0834C15.0164 19.0834 19.0832 15.0167 19.0832 10.0001C19.0832 4.9835 15.0164 0.916748 9.99984 0.916748ZM9.99984 14.1667C10.4601 14.1667 10.8332 13.7937 10.8332 13.3334C10.8332 12.8732 10.4601 12.5001 9.99984 12.5001C9.5396 12.5001 9.1665 12.8732 9.1665 13.3334C9.1665 13.7937 9.5396 14.1667 9.99984 14.1667ZM9.99984 7.41675C9.49358 7.41675 9.08317 7.82715 9.08317 8.33342V8.75008C9.08317 9.1643 8.74738 9.50008 8.33317 9.50008C7.91896 9.50008 7.58317 9.1643 7.58317 8.75008V8.33342C7.58317 6.99873 8.66515 5.91675 9.99984 5.91675C11.3345 5.91675 12.4165 6.99873 12.4165 8.33342V8.43451C12.4165 9.10227 12.1512 9.74267 11.6791 10.2148L10.5302 11.3637C10.2373 11.6566 9.7624 11.6566 9.46951 11.3637C9.17661 11.0709 9.17661 10.596 9.46951 10.3031L10.6184 9.15419C10.8093 8.96332 10.9165 8.70444 10.9165 8.43451V8.33342C10.9165 7.82715 10.5061 7.41675 9.99984 7.41675Z" fill="white"/>
</g>
</svg>
